<svg width="48" height="48" viewBox="0 0 48 48" fill="none" xmlns="http://www.w3.org/2000/svg">
<path d="M31.5179 47.5191H47.1953V35.3178C47.1953 33.4128 46.7753 31.5468 45.9841 29.9361L32.6714 2.83519C32.3181 2.11599 31.8289 1.52349 31.2495 1.11288C30.6701 0.70228 30.0193 0.486943 29.3577 0.486938H2.12276C1.04045 0.486938 0.163086 1.61498 0.163086 3.00652V4.68624C0.163086 7.93314 2.21029 10.5653 4.73566 10.5653H23.5143C24.5631 10.5653 25.2744 11.9371 24.871 13.1817L23.1228 18.5763C22.9244 19.1885 22.5895 19.7115 22.1603 20.0794C21.7311 20.4473 21.2268 20.6436 20.7109 20.6436H10.6147C7.72857 20.6436 5.38889 23.6518 5.38889 27.3625V28.2023C5.38889 29.5939 6.26625 30.7219 7.34856 30.7219H19.3847C20.1276 30.7219 20.8551 30.9933 21.4825 31.5046L30.6071 38.9385C30.8861 39.1658 31.1159 39.4801 31.2752 39.8522C31.4344 40.2243 31.5179 40.6421 31.5179 41.0668V47.5191Z" fill="#BA1E68" fill-opacity="0.9"/>
</svg>
