<svg width="48" height="48" viewBox="0 0 48 48" fill="none" xmlns="http://www.w3.org/2000/svg">
<path d="M43.7199 12.2456C41.3657 12.2062 39.4386 13.9315 39.4386 15.992V24.003H38.5987V7.81644C38.5987 5.75603 36.6717 4.03072 34.3174 4.07013C32.0361 4.10834 30.2001 5.73849 30.2001 7.74388V24.003H29.3603V4.23392C29.3603 2.1735 27.4332 0.448193 25.079 0.4876C22.7976 0.525814 20.9616 2.15596 20.9616 4.16135V24.003H20.1218V7.9083C20.1218 5.84789 18.1947 4.12258 15.8405 4.16199C13.5591 4.2002 11.7231 5.83035 11.7231 7.83573V29.5139L8.40065 25.5163C7.03661 23.8751 4.41036 23.5121 2.53453 24.7058C0.659009 25.8994 0.244327 28.1974 1.60837 29.8386L14.7943 45.7033C15.2618 46.2657 15.8747 46.7234 16.583 47.039C17.2913 47.3546 18.0748 47.5191 18.8696 47.5191H39.6132C41.9516 47.5191 43.9828 46.1115 44.5184 44.1198L47.3013 33.7709C47.6573 32.4469 47.8371 31.0914 47.8371 29.7313V15.9194C47.8372 13.914 46.0013 12.2839 43.7199 12.2456Z" fill="#BA1E68" fill-opacity="0.9"/>
</svg>
