<svg id="Layer_1" data-name="Layer 1" xmlns="http://www.w3.org/2000/svg" viewBox="0 0 896.00866 896.00866"><defs><style>.cls-1{fill:#fff;}.cls-2{fill:#ba1e68;}</style></defs><title>Reload</title><path class="cls-1" d="M436.08508.15617C198.50885,6.39071,6.39071,198.50885.15617,436.08508-6.61665,694.17335,201.82665,902.61665,459.91492,895.84383c237.57623-6.23454,429.69437-198.35268,435.92891-435.92891C902.61665,201.82665,694.17335-6.61665,436.08508.15617ZM687.9,410.89H559.66a18.54043,18.54043,0,0,1-13.12-31.68l46.91764-46.91764a1.26937,1.26937,0,0,0,.065-1.725L582.2576,317.46213q-.02762-.03213-.05711-.06268c-80.24318-83.08857-218.5266-76.30821-289.23293,22.5583A186.02949,186.02949,0,0,0,289.25395,550.535C356.43793,651.84374,494.42,663.48807,577.54,583.25a188.01137,188.01137,0,0,0,46.64-72.51,34.49486,34.49486,0,0,1,65.05,22.98A257.86483,257.86483,0,0,1,360.45,691.66C226.04,644.48,155.33,497.28,202.51,362.88c47.18-134.41,194.38-205.12,328.78-157.94a257.8672,257.8672,0,0,1,101.38,65.52l1.21,1.33,8.38752,9.73427a1.26936,1.26936,0,0,0,1.85921.069L674.78,250.94a18.21755,18.21755,0,0,1,12.92-5.47,18.55686,18.55686,0,0,1,18.7,18.4v.19l.06,128.26A18.56265,18.56265,0,0,1,687.9,410.89Z" transform="translate(0.00433 0.00433)"/><path class="cls-2" d="M546.54,379.21l46.91764-46.91764a1.26937,1.26937,0,0,0,.065-1.725L582.2576,317.46213q-.02762-.03213-.05711-.06268c-80.24318-83.08857-218.5266-76.30821-289.23293,22.5583A186.02949,186.02949,0,0,0,289.25395,550.535C356.43793,651.84374,494.42,663.48807,577.54,583.25a188.01137,188.01137,0,0,0,46.64-72.51,34.49486,34.49486,0,0,1,65.05,22.98A257.86483,257.86483,0,0,1,360.45,691.66C226.04,644.48,155.33,497.28,202.51,362.88c47.18-134.41,194.38-205.12,328.78-157.94a257.8672,257.8672,0,0,1,101.38,65.52l1.21,1.33,8.38752,9.73427a1.26936,1.26936,0,0,0,1.85921.069L674.78,250.94a18.21755,18.21755,0,0,1,12.92-5.47,18.55686,18.55686,0,0,1,18.7,18.4v.19l.06,128.26a18.56265,18.56265,0,0,1-18.56,18.57H559.66a18.54043,18.54043,0,0,1-13.12-31.68Z" transform="translate(0.00433 0.00433)"/></svg>