<svg width="48" height="48" viewBox="0 0 48 48" fill="none" xmlns="http://www.w3.org/2000/svg">
<path d="M42.7286 5.52543C40.2576 5.48345 38.2459 7.75054 38.2459 10.5634H37.511V7.28872C37.511 4.52833 35.5911 2.21926 33.1752 2.16678C30.7042 2.12479 28.6925 4.39188 28.6925 7.20475V10.5634H27.9576V5.6094C27.9576 2.849 26.0377 0.53993 23.6218 0.487451C21.1508 0.445468 19.1391 2.71256 19.1391 5.52543V10.5634H18.4042V7.28872C18.4042 4.52833 16.4843 2.21926 14.0684 2.16678C11.5974 2.12479 9.58564 4.39188 9.58564 7.20475V21.479L8.85076 20.7338V15.6853C8.85076 12.925 6.93089 10.6159 4.51498 10.5634C2.04396 10.5214 0.0322266 12.7885 0.0322266 15.6014V22.5706C0.0322266 25.4464 1.10699 28.1858 2.99011 30.1066L13.2508 40.5289C14.1878 41.484 14.7298 42.8589 14.7298 44.2969V45.0001C14.7298 46.396 15.7127 47.5191 16.9344 47.5191H38.9808C40.2025 47.5191 41.1854 46.396 41.1854 45.0001V44.6957C41.1854 43.3522 41.4242 42.0193 41.8743 40.7808L46.3755 28.5742C46.8348 27.3357 47.0644 26.0027 47.0644 24.6592V10.6474C47.0644 7.88698 45.1445 5.56741 42.7286 5.52543V5.52543Z" fill="#BA1E68" fill-opacity="0.9"/>
</svg>
