<svg width="66" height="66" viewBox="0 0 66 66" fill="none" xmlns="http://www.w3.org/2000/svg">
<path fill-rule="evenodd" clip-rule="evenodd" d="M65 33C65 41.4869 61.6286 49.6263 55.6274 55.6274C49.6263 61.6286 41.4869 65 33 65C24.5131 65 16.3737 61.6286 10.3726 55.6274C4.37142 49.6263 1 41.4869 1 33C1 24.5131 4.37142 16.3737 10.3726 10.3726C16.3737 4.37142 24.5131 1 33 1C41.4869 1 49.6263 4.37142 55.6274 10.3726C61.6286 16.3737 65 24.5131 65 33ZM33 21C32.2972 20.9993 31.6066 21.1838 30.9978 21.5349C30.389 21.886 29.8834 22.3913 29.532 23C29.2783 23.4715 28.9324 23.8873 28.515 24.2226C28.0976 24.558 27.6172 24.8062 27.1021 24.9524C26.587 25.0986 26.0478 25.14 25.5164 25.0739C24.9851 25.0079 24.4724 24.8359 24.0087 24.568C23.5451 24.3002 23.14 23.942 22.8173 23.5147C22.4947 23.0873 22.2611 22.5996 22.1305 22.0803C21.9999 21.5611 21.9748 21.0209 22.0569 20.4917C22.1389 19.9626 22.3263 19.4553 22.608 19C23.9289 16.7125 25.9676 14.9246 28.4081 13.9138C30.8486 12.9031 33.5544 12.7257 36.1059 13.4094C38.6574 14.0931 40.912 15.5996 42.5201 17.6952C44.1282 19.7908 44.9999 22.3585 45 25C45.0007 27.4825 44.2318 29.9041 42.799 31.9314C41.3663 33.9587 39.3403 35.492 37 36.32L37 37C37 38.0609 36.5786 39.0783 35.8284 39.8284C35.0783 40.5786 34.0609 41 33 41C31.9391 41 30.9217 40.5786 30.1716 39.8284C29.4214 39.0783 29 38.0609 29 37L29 33C29 31.9391 29.4214 30.9217 30.1716 30.1716C30.9217 29.4214 31.9391 29 33 29C34.0609 29 35.0783 28.5786 35.8284 27.8284C36.5786 27.0783 37 26.0609 37 25C37 23.9391 36.5786 22.9217 35.8284 22.1716C35.0783 21.4214 34.0609 21 33 21ZM33 53C34.0609 53 35.0783 52.5786 35.8284 51.8284C36.5786 51.0783 37 50.0609 37 49C37 47.9391 36.5786 46.9217 35.8284 46.1716C35.0783 45.4214 34.0609 45 33 45C31.9391 45 30.9217 45.4214 30.1716 46.1716C29.4214 46.9217 29 47.9391 29 49C29 50.0609 29.4214 51.0783 30.1716 51.8284C30.9217 52.5786 31.9391 53 33 53Z" fill="#FCFBFE" fill-opacity="0.9" stroke="#BA1E68" stroke-width="2"/>
</svg>
