<svg width="35" height="35" viewBox="0 0 35 35" fill="none" xmlns="http://www.w3.org/2000/svg">
<path d="M22.1797 22.0433L13.2651 11.4432L25.9802 0.749756H32.6897L19.9746 11.4432L28.937 22.0433H22.1797Z" fill="#FCFBFE" fill-opacity="0.9"/>
<path d="M6.11395 12.9595H12.8234L21.7851 23.6529L9.07004 34.253H2.31348L15.0286 23.6536L6.11395 12.9595Z" fill="#FCFBFE" fill-opacity="0.9"/>
<path d="M5.61477 30.3406L7.83273 28.4921C6.26776 27.1201 5.01391 25.4299 4.15507 23.5345C3.29624 21.639 2.8522 19.5821 2.85267 17.5014C2.85267 9.4271 9.42452 2.85776 17.5019 2.85776C18.8355 2.85708 20.1629 3.0389 21.4471 3.39814L24.0024 1.24946C20.2591 -0.245862 16.1141 -0.403966 12.2677 0.801853C8.42122 2.00767 5.10893 4.50352 2.8902 7.86789C0.671464 11.2323 -0.317737 15.259 0.0896531 19.268C0.497044 23.277 2.27606 27.0226 5.12625 29.8723C5.286 30.032 5.44932 30.1881 5.61477 30.3406Z" fill="#FCFBFE" fill-opacity="0.9"/>
<path d="M29.4055 4.67706L27.1946 6.53059C28.7518 7.90239 29.9989 9.58991 30.8531 11.4809C31.7072 13.3719 32.1487 15.423 32.1483 17.4978C32.1483 25.5721 25.5765 32.1414 17.4991 32.1414C16.1891 32.1427 14.885 31.9679 13.6216 31.6217L11.0449 33.7697C14.7883 35.2521 18.9284 35.3995 22.7677 34.1869C26.607 32.9742 29.9108 30.4758 32.1225 27.1125C34.3342 23.7491 35.3185 19.7266 34.9095 15.7225C34.5006 11.7184 32.7235 7.97766 29.8776 5.13047C29.7228 4.97577 29.5645 4.82535 29.4055 4.67706Z" fill="#FCFBFE" fill-opacity="0.9"/>
</svg>
