<svg width="49" height="48" viewBox="0 0 49 48" fill="none" xmlns="http://www.w3.org/2000/svg">
<path d="M20.8256 43.3198C20.8256 41.0006 22.4707 39.1205 24.5 39.1205V38.2807H21.5605C19.5312 38.2807 17.8861 36.4007 17.8861 34.0814C17.8861 31.7621 19.5312 29.8821 21.5605 29.8821H24.5V29.0422H5.39315C2.95795 29.0422 0.983887 26.7862 0.983887 24.0031C0.983887 21.22 2.95795 18.9639 5.39315 18.9639H24.5V17.5391L8.19019 10.2176C5.92364 9.19993 4.8081 6.27501 5.6985 3.68478C6.58889 1.09445 9.1482 -0.180354 11.4147 0.83724L28.8995 8.68625L31.1842 5.42235C32.3147 3.80761 34.3055 3.37361 35.8765 4.39971L46.1648 11.1186C46.7272 11.4859 47.1946 12.0166 47.5197 12.6569C47.8448 13.2972 48.0161 14.0243 48.0161 14.7646V39.9604C48.0161 41.9091 46.843 43.6018 45.1833 44.0481L32.6904 47.4075C32.4145 47.4817 32.1321 47.5192 31.8488 47.5191H24.5C22.4707 47.5191 20.8256 45.6391 20.8256 43.3198Z" fill="#BA1E68" fill-opacity="0.9"/>
</svg>
