<svg width="48" height="48" viewBox="0 0 48 48" fill="none" xmlns="http://www.w3.org/2000/svg">
<path d="M46.9321 13.3451L40.6576 39.6922C40.1598 41.7825 38.9717 43.644 37.2852 44.9759C35.5986 46.3077 33.5123 47.0322 31.3632 47.0322H19.662C16.4801 47.0322 13.4181 45.8181 11.1009 43.6378L1.1513 34.2756C0.443754 33.6074 0.0302672 32.6859 0.00159642 31.7132C-0.0270744 30.7405 0.331413 29.7962 0.998374 29.0875C1.66534 28.3788 2.58627 27.9637 3.55905 27.9332C4.53183 27.9027 5.47697 28.2594 6.18701 28.9249L11.7538 34.1632C11.7538 31.6606 11.3927 29.171 10.6817 26.7716L6.75974 13.5371C6.48295 12.6026 6.5888 11.5964 7.054 10.7399C7.51919 9.88343 8.30562 9.24679 9.2403 8.97004C10.175 8.6933 11.1813 8.79913 12.0379 9.26425C12.8946 9.72937 13.5313 10.5157 13.8081 11.4502L17.2215 22.9687C17.2782 23.1614 17.4083 23.3241 17.5839 23.4217C17.7594 23.5193 17.9663 23.5439 18.1599 23.4904C18.3534 23.4369 18.5182 23.3094 18.6187 23.1355C18.7191 22.9616 18.7471 22.7552 18.6967 22.5608L14.0751 4.58971C13.9548 4.12246 13.9278 3.6361 13.9955 3.1584C14.0632 2.68071 14.2243 2.22102 14.4697 1.80559C14.7151 1.39017 15.04 1.02713 15.4257 0.737226C15.8114 0.447317 16.2505 0.236208 16.7178 0.115952C17.1851 -0.00430356 17.6715 -0.0313506 18.1493 0.0363552C18.6271 0.104061 19.0868 0.265194 19.5023 0.510553C19.9178 0.755913 20.2809 1.08069 20.5709 1.46635C20.8608 1.85201 21.072 2.291 21.1922 2.75824L26.3458 22.7978C26.3997 23.0074 26.523 23.1926 26.6957 23.3231C26.8684 23.4536 27.0802 23.5218 27.2966 23.5165C27.5131 23.5111 27.7213 23.4326 27.8873 23.2937C28.0533 23.1548 28.1674 22.9638 28.2108 22.7518L31.6729 5.8771C31.777 5.37277 31.9859 4.89591 32.2859 4.47738C32.586 4.05885 32.9706 3.70797 33.4149 3.44744C33.8592 3.1869 34.3532 3.02252 34.865 2.96493C35.3768 2.90733 35.895 2.95781 36.3861 3.11309C38.2107 3.6918 39.2216 5.65517 38.8369 7.53008L35.728 22.6835C35.6918 22.8617 35.7271 23.047 35.8262 23.1995C35.9253 23.352 36.0803 23.4595 36.2579 23.4988C36.4354 23.5382 36.6214 23.5062 36.7756 23.4098C36.9299 23.3135 37.0401 23.1604 37.0826 22.9836L39.7834 11.6429C40.0091 10.6951 40.6022 9.87572 41.4322 9.3651C41.8432 9.11227 42.2999 8.94285 42.7764 8.8665C43.2528 8.79016 43.7396 8.8084 44.209 8.92017C44.6784 9.03193 45.1212 9.23505 45.5121 9.51791C45.903 9.80078 46.2344 10.1579 46.4872 10.5688C46.7401 10.9796 46.9095 11.4363 46.9859 11.9127C47.0623 12.3891 47.044 12.8758 46.9322 13.3451H46.9321Z" fill="#BA1E68" fill-opacity="0.9"/>
</svg>
